<mxfile host="app.diagrams.net" modified="2022-05-05T06:17:07.428Z" agent="5.0 (Windows NT 10.0; Win64; x64) AppleWebKit/537.36 (KHTML, like Gecko) Chrome/100.0.4896.127 Safari/537.36" etag="sTp7U5LruHdN9umMrca3" version="16.6.4" type="github">
  <diagram id="SRc7_i1eHmLtoLI0htpV" name="Page-1">
    <mxGraphModel dx="1422" dy="706" grid="1" gridSize="10" guides="1" tooltips="1" connect="1" arrows="1" fold="1" page="1" pageScale="1" pageWidth="827" pageHeight="1169" math="0" shadow="0">
      <root>
        <mxCell id="0" />
        <mxCell id="1" parent="0" />
        <mxCell id="tn1ba6E4ZoKOK3BNxuy9-23" value="" style="endArrow=none;html=1;rounded=0;fontSize=14;entryX=0.5;entryY=1;entryDx=0;entryDy=0;exitX=0.5;exitY=0;exitDx=0;exitDy=0;fillColor=#dae8fc;strokeColor=#66B2FF;" edge="1" parent="1" source="tn1ba6E4ZoKOK3BNxuy9-22" target="tn1ba6E4ZoKOK3BNxuy9-1">
          <mxGeometry width="50" height="50" relative="1" as="geometry">
            <mxPoint x="390" y="390" as="sourcePoint" />
            <mxPoint x="440" y="340" as="targetPoint" />
          </mxGeometry>
        </mxCell>
        <mxCell id="tn1ba6E4ZoKOK3BNxuy9-1" value="白名單" style="rounded=0;whiteSpace=wrap;html=1;strokeColor=#999999;" vertex="1" parent="1">
          <mxGeometry x="335" y="170" width="100" height="30" as="geometry" />
        </mxCell>
        <mxCell id="tn1ba6E4ZoKOK3BNxuy9-12" value="&lt;span style=&quot;color: rgb(49 , 49 , 49) ; font-style: normal ; letter-spacing: normal ; text-indent: 0px ; text-transform: none ; word-spacing: 0px ; background-color: rgb(255 , 255 , 255) ; display: inline ; float: none&quot;&gt;&lt;font style=&quot;font-size: 14px&quot;&gt;Traffic sequence&lt;/font&gt;&lt;/span&gt;" style="text;whiteSpace=wrap;html=1;" vertex="1" parent="1">
          <mxGeometry x="330" y="140" width="140" height="30" as="geometry" />
        </mxCell>
        <mxCell id="tn1ba6E4ZoKOK3BNxuy9-19" value="黑名單" style="rounded=0;whiteSpace=wrap;html=1;strokeColor=#999999;" vertex="1" parent="1">
          <mxGeometry x="335" y="206" width="100" height="30" as="geometry" />
        </mxCell>
        <mxCell id="tn1ba6E4ZoKOK3BNxuy9-20" value="國別限制" style="rounded=0;whiteSpace=wrap;html=1;strokeColor=#999999;" vertex="1" parent="1">
          <mxGeometry x="335" y="241" width="100" height="30" as="geometry" />
        </mxCell>
        <mxCell id="tn1ba6E4ZoKOK3BNxuy9-21" value="Ratelimit" style="rounded=0;whiteSpace=wrap;html=1;strokeColor=#999999;" vertex="1" parent="1">
          <mxGeometry x="335" y="279" width="100" height="30" as="geometry" />
        </mxCell>
        <mxCell id="tn1ba6E4ZoKOK3BNxuy9-22" value="WAF" style="rounded=0;whiteSpace=wrap;html=1;strokeColor=#999999;" vertex="1" parent="1">
          <mxGeometry x="335" y="316" width="100" height="30" as="geometry" />
        </mxCell>
      </root>
    </mxGraphModel>
  </diagram>
</mxfile>
